<?xml version="1.0" encoding="UTF-8" standalone="no"?>
<!DOCTYPE svg PUBLIC "-//W3C//DTD SVG 1.1//EN"
 "http://www.w3.org/Graphics/SVG/1.1/DTD/svg11.dtd">
<!-- Generated by graphviz version 2.43.0 (0)
 -->
<!-- Title: UBS Pages: 1 -->
<svg width="748pt" height="208pt"
 viewBox="0.00 0.00 748.00 207.50" xmlns="http://www.w3.org/2000/svg" xmlns:xlink="http://www.w3.org/1999/xlink">
<g id="graph0" class="graph" transform="scale(1 1) rotate(0) translate(4 203.5)">
<title>UBS</title>
<polygon fill="white" stroke="transparent" points="-4,4 -4,-203.5 744,-203.5 744,4 -4,4"/>
<text text-anchor="middle" x="370" y="-184.3" font-family="Times,serif" font-size="14.00">Windsor.ai connector to Facebook Ads source tables</text>
<!-- account -->
<g id="node1" class="node">
<title>account</title>
<polygon fill="lightblue" stroke="transparent" points="1.5,-156 1.5,-175 124.5,-175 124.5,-156 1.5,-156"/>
<text text-anchor="start" x="3.5" y="-161.8" font-family="Times,serif" font-size="14.00">account</text>
<image xlink:href="pk.jpeg" width="13px" height="13px" preserveAspectRatio="xMinYMin meet" x="3.5" y="-153"/>
<text text-anchor="start" x="20.5" y="-142.8" font-family="Times,serif" font-size="14.00">account_id</text>
<text text-anchor="start" x="20.5" y="-123.8" font-family="Times,serif" font-size="14.00">account_name</text>
<polygon fill="none" stroke="black" points="0,-117.5 0,-176.5 125,-176.5 125,-117.5 0,-117.5"/>
</g>
<!-- campaign -->
<g id="node2" class="node">
<title>campaign</title>
<polygon fill="lightblue" stroke="transparent" points="162.5,-155 162.5,-174 273.5,-174 273.5,-155 162.5,-155"/>
<text text-anchor="start" x="164.5" y="-160.8" font-family="Times,serif" font-size="14.00">campaign</text>
<image xlink:href="fk.jpeg" width="13px" height="13px" preserveAspectRatio="xMinYMin meet" x="164.5" y="-152"/>
<text text-anchor="start" x="181.5" y="-141.8" font-family="Times,serif" font-size="14.00">account_id</text>
<image xlink:href="pk.jpeg" width="13px" height="13px" preserveAspectRatio="xMinYMin meet" x="164.5" y="-133"/>
<text text-anchor="start" x="181.5" y="-122.8" font-family="Times,serif" font-size="14.00">campaign_id</text>
<text text-anchor="start" x="181.5" y="-103.8" font-family="Times,serif" font-size="14.00">campaign</text>
<polygon fill="none" stroke="black" points="161,-97 161,-175 274,-175 274,-97 161,-97"/>
</g>
<!-- account&#45;&gt;campaign -->
<g id="edge1" class="edge">
<title>account:account_id2&#45;&gt;campaign:account_id</title>
<path fill="none" stroke="black" d="M125,-146C137.17,-146 142.49,-146 151.23,-146"/>
<polygon fill="black" stroke="black" points="151.5,-146 161.5,-150.5 156.5,-146 161.5,-146 161.5,-146 161.5,-146 156.5,-146 161.5,-141.5 151.5,-146 151.5,-146"/>
</g>
<!-- ad_set -->
<g id="node3" class="node">
<title>ad_set</title>
<polygon fill="lightblue" stroke="transparent" points="311.5,-135 311.5,-154 470.5,-154 470.5,-135 311.5,-135"/>
<text text-anchor="start" x="313.5" y="-140.8" font-family="Times,serif" font-size="14.00">ad_set</text>
<image xlink:href="fk.jpeg" width="13px" height="13px" preserveAspectRatio="xMinYMin meet" x="313.5" y="-132"/>
<text text-anchor="start" x="330.5" y="-121.8" font-family="Times,serif" font-size="14.00">campaign_id</text>
<image xlink:href="pk.jpeg" width="13px" height="13px" preserveAspectRatio="xMinYMin meet" x="313.5" y="-113"/>
<text text-anchor="start" x="330.5" y="-102.8" font-family="Times,serif" font-size="14.00">adset_id</text>
<text text-anchor="start" x="330.5" y="-83.8" font-family="Times,serif" font-size="14.00">adset_name</text>
<text text-anchor="start" x="330.5" y="-64.8" font-family="Times,serif" font-size="14.00">adset_start_time</text>
<text text-anchor="start" x="330.5" y="-45.8" font-family="Times,serif" font-size="14.00">adset_end_time</text>
<text text-anchor="start" x="330.5" y="-26.8" font-family="Times,serif" font-size="14.00">adset_bid_strategy</text>
<text text-anchor="start" x="330.5" y="-7.8" font-family="Times,serif" font-size="14.00">adset_daily_budget</text>
<polygon fill="none" stroke="black" points="310,-1 310,-155 471,-155 471,-1 310,-1"/>
</g>
<!-- campaign&#45;&gt;ad_set -->
<g id="edge2" class="edge">
<title>campaign:campaign_id2&#45;&gt;ad_set:campaign_id</title>
<path fill="none" stroke="black" d="M274,-126C286.17,-126 291.49,-126 300.23,-126"/>
<polygon fill="black" stroke="black" points="300.5,-126 310.5,-130.5 305.5,-126 310.5,-126 310.5,-126 310.5,-126 305.5,-126 310.5,-121.5 300.5,-126 300.5,-126"/>
</g>
<!-- ad -->
<g id="node4" class="node">
<title>ad</title>
<polygon fill="lightblue" stroke="transparent" points="508.5,-116 508.5,-135 593.5,-135 593.5,-116 508.5,-116"/>
<text text-anchor="start" x="510.5" y="-121.8" font-family="Times,serif" font-size="14.00">ad</text>
<image xlink:href="fk.jpeg" width="13px" height="13px" preserveAspectRatio="xMinYMin meet" x="510.5" y="-113"/>
<text text-anchor="start" x="527.5" y="-102.8" font-family="Times,serif" font-size="14.00">adset_id</text>
<image xlink:href="pk.jpeg" width="13px" height="13px" preserveAspectRatio="xMinYMin meet" x="510.5" y="-94"/>
<text text-anchor="start" x="527.5" y="-83.8" font-family="Times,serif" font-size="14.00">ad_id</text>
<text text-anchor="start" x="527.5" y="-64.8" font-family="Times,serif" font-size="14.00">ad_name</text>
<polygon fill="none" stroke="black" points="507,-58 507,-136 594,-136 594,-58 507,-58"/>
</g>
<!-- ad_set&#45;&gt;ad -->
<g id="edge3" class="edge">
<title>ad_set:adset_id2&#45;&gt;ad:adset_id</title>
<path fill="none" stroke="black" d="M471,-107C483.17,-107 488.49,-107 497.23,-107"/>
<polygon fill="black" stroke="black" points="497.5,-107 507.5,-111.5 502.5,-107 507.5,-107 507.5,-107 507.5,-107 502.5,-107 507.5,-102.5 497.5,-107 497.5,-107"/>
</g>
<!-- report -->
<g id="node5" class="node">
<title>report</title>
<polygon fill="lightblue" stroke="transparent" points="631,-96 631,-115 739,-115 739,-96 631,-96"/>
<text text-anchor="start" x="633" y="-101.8" font-family="Times,serif" font-size="14.00">report</text>
<image xlink:href="fk.jpeg" width="13px" height="13px" preserveAspectRatio="xMinYMin meet" x="633" y="-93"/>
<text text-anchor="start" x="650" y="-82.8" font-family="Times,serif" font-size="14.00">ad_id</text>
<text text-anchor="start" x="650" y="-63.8" font-family="Times,serif" font-size="14.00">date</text>
<text text-anchor="start" x="650" y="-44.8" font-family="Times,serif" font-size="14.00">clicks</text>
<text text-anchor="start" x="650" y="-25.8" font-family="Times,serif" font-size="14.00">impressions</text>
<text text-anchor="start" x="650" y="-6.8" font-family="Times,serif" font-size="14.00">spend</text>
<polygon fill="none" stroke="black" points="630,0 630,-116 740,-116 740,0 630,0"/>
</g>
<!-- ad&#45;&gt;report -->
<g id="edge4" class="edge">
<title>ad:ad_id2&#45;&gt;report:ad_id</title>
<path fill="none" stroke="black" d="M594,-87C606,-87 611.25,-87 619.88,-87"/>
<polygon fill="black" stroke="black" points="620,-87 630,-91.5 625,-87 630,-87 630,-87 630,-87 625,-87 630,-82.5 620,-87 620,-87"/>
</g>
</g>
</svg>
