<?xml version="1.0" encoding="UTF-8" standalone="no"?>
<!DOCTYPE svg PUBLIC "-//W3C//DTD SVG 1.1//EN"
 "http://www.w3.org/Graphics/SVG/1.1/DTD/svg11.dtd">
<!-- Generated by graphviz version 2.43.0 (0)
 -->
<!-- Title: %3 Pages: 1 -->
<svg width="394pt" height="353pt"
 viewBox="0.00 0.00 394.00 353.00" xmlns="http://www.w3.org/2000/svg" xmlns:xlink="http://www.w3.org/1999/xlink">
<g id="graph0" class="graph" transform="scale(1 1) rotate(0) translate(4 349)">
<title>%3</title>
<polygon fill="white" stroke="transparent" points="-4,4 -4,-349 390,-349 390,4 -4,4"/>
<text text-anchor="middle" x="193" y="-329.8" font-family="Times,serif" font-size="14.00">Data pipeline</text>
<g id="clust1" class="cluster">
<title>cluster_0</title>
<polygon fill="none" stroke="black" stroke-dasharray="5,2" points="142,-8 142,-314 256,-314 256,-8 142,-8"/>
<text text-anchor="middle" x="199" y="-298.8" font-family="Times,serif" font-size="14.00">Facebook Ads</text>
<text text-anchor="middle" x="199" y="-283.8" font-family="Times,serif" font-size="14.00">source tables</text>
</g>
<g id="clust2" class="cluster">
<title>cluster_1</title>
<polygon fill="none" stroke="black" stroke-dasharray="5,2" points="276,-35 276,-110 378,-110 378,-35 276,-35"/>
<text text-anchor="middle" x="327" y="-94.8" font-family="Times,serif" font-size="14.00">dbt model</text>
</g>
<!-- Windsor -->
<g id="node1" class="node">
<title>Windsor</title>
<polygon fill="none" stroke="black" stroke-dasharray="5,2" points="114,-168.5 0,-168.5 0,-115.5 114,-115.5 114,-168.5"/>
<text text-anchor="middle" x="57" y="-153.3" font-family="Times,serif" font-size="14.00">Windsor.ai</text>
<text text-anchor="middle" x="57" y="-138.3" font-family="Times,serif" font-size="14.00">connector to</text>
<text text-anchor="middle" x="57" y="-123.3" font-family="Times,serif" font-size="14.00">Facebook Ads</text>
</g>
<!-- ad_set -->
<g id="node4" class="node">
<title>ad_set</title>
<text text-anchor="middle" x="199" y="-138.3" font-family="Times,serif" font-size="14.00" fill="blue">ad_set</text>
</g>
<!-- Windsor&#45;&gt;ad_set -->
<g id="edge1" class="edge">
<title>Windsor&#45;&gt;ad_set</title>
<path fill="none" stroke="black" d="M114.14,-142C119.87,-142 125.74,-142 131.57,-142"/>
<polygon fill="black" stroke="black" points="132,-145.5 142,-142 132,-138.5 132,-145.5"/>
</g>
<!-- account -->
<g id="node2" class="node">
<title>account</title>
<text text-anchor="middle" x="199" y="-246.3" font-family="Times,serif" font-size="14.00" fill="blue">account</text>
</g>
<!-- campaign -->
<g id="node3" class="node">
<title>campaign</title>
<text text-anchor="middle" x="199" y="-192.3" font-family="Times,serif" font-size="14.00" fill="blue">campaign</text>
</g>
<!-- ad -->
<g id="node5" class="node">
<title>ad</title>
<text text-anchor="middle" x="199" y="-84.3" font-family="Times,serif" font-size="14.00" fill="blue">ad</text>
</g>
<!-- ad_report -->
<g id="node7" class="node">
<title>ad_report</title>
<text text-anchor="middle" x="327" y="-57.3" font-family="Times,serif" font-size="14.00" fill="green">ad_report</text>
</g>
<!-- ad&#45;&gt;ad_report -->
<g id="edge2" class="edge">
<title>ad&#45;&gt;ad_report</title>
<path fill="none" stroke="black" d="M226.11,-82.41C239.84,-79.46 257.18,-75.75 273.54,-72.24"/>
<polygon fill="black" stroke="black" points="274.51,-75.61 283.56,-70.09 273.05,-68.77 274.51,-75.61"/>
</g>
<!-- report -->
<g id="node6" class="node">
<title>report</title>
<text text-anchor="middle" x="199" y="-30.3" font-family="Times,serif" font-size="14.00" fill="blue">report</text>
</g>
<!-- report&#45;&gt;ad_report -->
<g id="edge3" class="edge">
<title>report&#45;&gt;ad_report</title>
<path fill="none" stroke="black" d="M230.18,-40.47C243.19,-43.26 258.8,-46.6 273.6,-49.77"/>
<polygon fill="black" stroke="black" points="273.17,-53.26 283.68,-51.93 274.63,-46.41 273.17,-53.26"/>
</g>
</g>
</svg>
